<svg width="67" height="67" viewBox="0 0 67 67" fill="none" xmlns="http://www.w3.org/2000/svg">
<path d="M56.5141 5.91943H56.5054C56.0501 5.91943 55.6856 6.27027 55.6856 6.70309C55.6856 7.13592 56.059 7.48676 56.5141 7.48676C56.9693 7.48676 57.3383 7.13592 57.3383 6.70309C57.3383 6.27027 56.9693 5.91943 56.5141 5.91943Z" fill="#FFB902"/>
<path d="M43.9757 50.5091L32.2455 45.862C31.7232 45.6552 31.386 45.174 31.386 44.636V42.2702L33.5792 41.1117C35.4584 40.119 36.6964 38.3111 36.8909 36.2756L36.8958 36.2252H38.041C40.1703 36.2252 41.9027 34.578 41.9027 32.5534V30.2964C42.2479 29.5026 43.2172 26.9618 43.2172 23.4567C43.2172 18.6137 41.222 14.0442 37.5992 10.5898C36.213 9.26816 34.6451 8.16962 32.9442 7.31284C32.8849 3.34616 28.7084 0.133057 23.5807 0.133057C18.453 0.133057 14.2765 3.34616 14.2171 7.31284C12.5162 8.16948 10.9483 9.26801 9.5621 10.5898C5.93928 14.0442 3.94405 18.6135 3.94405 23.4567C3.94405 26.9618 4.91332 29.5024 5.25858 30.2964V32.5534C5.25858 34.578 6.99093 36.2252 9.12025 36.2252H10.2655L10.2702 36.2756C10.4647 38.3111 11.7029 40.1191 13.582 41.1117L15.7753 42.2702V44.636C15.7753 45.1738 15.4379 45.655 14.9158 45.862L3.1855 50.5091C1.25029 51.2758 0 53.059 0 55.0522V62.5518C0 64.5763 1.73235 66.2235 3.86166 66.2235H43.2994C45.4287 66.2235 47.1611 64.5763 47.1611 62.5518V55.0522C47.1609 53.059 45.9107 51.2758 43.9757 50.5091ZM39.4378 32.5533C39.4378 33.2856 38.8112 33.8813 38.041 33.8813H37.12L37.6129 28.7253H38.041C38.8112 28.7253 39.4378 29.321 39.4378 30.0534V32.5533ZM23.5806 2.47673C26.8087 2.47673 29.5251 4.06553 30.2757 6.2041C28.1645 5.50011 25.9077 5.13288 23.5806 5.13288C21.2534 5.13288 18.9968 5.50011 16.8854 6.2041C17.6358 4.06553 20.3523 2.47673 23.5806 2.47673ZM9.11994 33.8813C8.34976 33.8813 7.72318 33.2856 7.72318 32.5533V30.0534C7.72318 29.321 8.34976 28.7253 9.11994 28.7253H9.54804L10.041 33.8813H9.11994ZM14.7791 39.063C13.6135 38.4472 12.8454 37.3258 12.7248 36.0633L11.7865 26.2504C13.3985 26.2407 16.2252 26.1102 19.5307 25.459C26.2908 24.1273 31.8059 21.222 35.4797 17.0572C35.9171 16.5615 35.849 15.8223 35.3273 15.4065C34.8058 14.9905 34.0285 15.0553 33.591 15.5513C25.5732 24.6409 10.7156 23.8962 10.5125 23.8844V23.8857C10.4502 23.8821 10.3872 23.8814 10.3231 23.887C9.64524 23.9457 9.14564 24.5155 9.20732 25.16L9.32402 26.3819H9.11994C8.25709 26.3819 7.45939 26.6525 6.81573 27.1089C6.59231 26.1223 6.40849 24.8799 6.40849 23.4567C6.40849 19.2385 8.14825 15.2568 11.3072 12.2447C14.532 9.16984 18.8907 7.47641 23.5804 7.47641C28.2701 7.47641 32.6287 9.1697 35.8536 12.2447C39.0125 15.2566 40.7523 19.2385 40.7523 23.4567C40.7523 24.8798 40.5686 26.1225 40.3451 27.109C39.7014 26.6525 38.9039 26.3819 38.0409 26.3819H37.8368L37.9536 25.1599C37.9869 24.8136 37.8563 24.4711 37.5976 24.2252L34.9684 21.7253C34.4871 21.2677 33.7068 21.2677 33.2256 21.7253C32.7443 22.1829 32.7443 22.9247 33.2256 23.3824L35.4467 25.4942L34.5692 34.6721C33.5627 35.5186 30.3706 37.6313 23.5804 37.6313C22.8997 37.6313 22.3479 38.1559 22.3479 38.8031C22.3479 39.4503 22.8997 39.9749 23.5804 39.9749C28.2989 39.9749 31.5278 39.0355 33.622 38.0439C33.2911 38.4549 32.8722 38.8041 32.382 39.0631L25.5356 42.6797C24.3113 43.3263 22.8495 43.3263 21.6254 42.6797L14.7791 39.063ZM15.8637 48.0252C17.3073 47.4533 18.24 46.1229 18.24 44.636V43.5721L20.4283 44.7281C21.4153 45.2493 22.4978 45.5102 23.5806 45.5102C24.6633 45.5102 25.7458 45.2496 26.7328 44.7281L28.9211 43.5721V44.636C28.9211 46.1232 29.8538 47.4534 31.2974 48.0252L32.5901 48.5373C30.2782 51.0894 28.0439 52.3574 26.5305 52.9774C24.8567 53.6632 23.6977 53.7195 23.5804 53.7237C23.4631 53.7196 22.3041 53.6632 20.6303 52.9774C19.1169 52.3575 16.8827 51.0894 14.5707 48.5373L15.8637 48.0252ZM7.88749 63.88H3.86166C3.09148 63.88 2.4649 63.2842 2.4649 62.5519V55.0523C2.4649 54.7292 2.52793 54.4167 2.64463 54.1273L6.87 57.3415C7.51684 57.8334 7.88749 58.5671 7.88749 59.3546V63.88ZM36.8086 59.3543V63.8798H10.3524V59.3543C10.3524 57.8509 9.64433 56.4502 8.40977 55.5111L4.49142 52.5306L12.1892 49.4809C16.2503 54.2568 20.3551 55.5707 22.3479 55.9314V59.8957C22.3479 60.543 22.8997 61.0676 23.5804 61.0676C24.2611 61.0676 24.8128 60.543 24.8128 59.8957V55.9314C26.8058 55.5707 30.9105 54.2568 34.9716 49.4809L42.6694 52.5306L38.751 55.5111C37.5166 56.4502 36.8086 57.851 36.8086 59.3543ZM44.6961 62.5519C44.6961 63.2842 44.0695 63.88 43.2993 63.88H39.2733V59.3545C39.2733 58.567 39.6441 57.8334 40.2908 57.3412L44.5162 54.1271C44.6329 54.4166 44.6959 54.7291 44.6959 55.0522V62.5519H44.6961Z" fill="#FFB902"/>
<path d="M22.0616 29.5448C21.4727 28.3827 20.0523 27.6316 18.4429 27.6316C16.8334 27.6316 15.4131 28.3826 14.8241 29.5448C14.5287 30.1278 14.7863 30.8282 15.3996 31.1092C16.0127 31.3902 16.7494 31.145 17.0449 30.562C17.1889 30.2777 17.728 29.9753 18.443 29.9753C19.158 29.9753 19.6969 30.2775 19.8411 30.562C20.0534 30.9812 20.4939 31.2256 20.9524 31.2256C21.1318 31.2256 21.3141 31.1881 21.4864 31.1092C22.0994 30.8282 22.357 30.1279 22.0616 29.5448Z" fill="#FFB902"/>
<path d="M32.3367 29.5448C31.748 28.3827 30.3276 27.6316 28.718 27.6316C27.1084 27.6316 25.6882 28.3826 25.0993 29.5448C24.8037 30.1279 25.0615 30.8282 25.6747 31.1092C26.2879 31.3902 27.0245 31.145 27.32 30.562C27.4641 30.2777 28.0031 29.9753 28.7182 29.9753C29.4332 29.9753 29.9721 30.2775 30.1163 30.562C30.3285 30.9812 30.769 31.2256 31.2275 31.2256C31.4069 31.2256 31.5892 31.1881 31.7616 31.1092C32.3745 30.8282 32.6323 30.1279 32.3367 29.5448Z" fill="#FFB902"/>
<path d="M56.5053 1.73999C50.7186 1.73999 46.0107 6.21627 46.0107 11.7184C46.0107 14.6054 47.2964 17.2914 49.5623 19.1891C48.4253 20.9589 47.1914 21.9788 47.1788 21.9892C46.9072 22.2097 46.8159 22.5714 46.9526 22.885C47.081 23.1794 47.3828 23.3687 47.7137 23.3687C47.7354 23.3687 47.7572 23.3678 47.7791 23.3663C47.9147 23.356 51.0096 23.1047 53.755 21.3494C54.6498 21.5801 55.5731 21.697 56.5054 21.697C62.2922 21.697 67 17.2207 67 11.7185C66.9999 6.21627 62.2921 1.73999 56.5053 1.73999ZM56.5053 20.1296C55.6026 20.1296 54.7102 19.9999 53.8531 19.744C53.6036 19.6696 53.3317 19.712 53.1204 19.8588C52.1056 20.5631 50.9918 21.0176 50.0354 21.3086C50.4632 20.7721 50.9201 20.1271 51.3485 19.3826C51.5434 19.0438 51.4496 18.6205 51.1276 18.3851C48.9233 16.775 47.6591 14.345 47.6591 11.7184C47.6591 7.08048 51.6275 3.30731 56.5053 3.30731C61.3832 3.30731 65.3515 7.08048 65.3515 11.7184C65.3515 16.3564 61.3832 20.1296 56.5053 20.1296Z" fill="#FFB902"/>
<path d="M57.3844 15.9501H57.3294V10.8303H57.3844C57.8396 10.8303 58.2085 10.4794 58.2085 10.0466C58.2085 9.61378 57.8396 9.26294 57.3844 9.26294H55.6261C55.1709 9.26294 54.8019 9.61378 54.8019 10.0466C54.8019 10.4794 55.1709 10.8303 55.6261 10.8303H55.6811V15.9501H55.6261C55.1709 15.9501 54.8019 16.3009 54.8019 16.7337C54.8019 17.1665 55.1709 17.5174 55.6261 17.5174H57.3844C57.8396 17.5174 58.2085 17.1665 58.2085 16.7337C58.2085 16.301 57.8396 15.9501 57.3844 15.9501Z" fill="#FFB902"/>
</svg>
