<svg width="67" height="67" viewBox="0 0 67 67" fill="none" xmlns="http://www.w3.org/2000/svg">
<path d="M49.1675 4.45211H40.3361C39.8561 3.15962 38.5111 2.22612 36.93 2.22612H34.4188C33.2851 0.83966 31.4896 0 29.5873 0C27.6851 0 25.8895 0.839659 24.7559 2.22599H22.2447C20.6636 2.22599 19.3186 3.15949 18.8386 4.45198H10.0068C7.34974 4.45198 5.18817 6.41804 5.18817 8.83445V55.581C5.18817 57.9976 7.34988 59.9635 10.0068 59.9635H34.4822C35.1158 59.9635 35.6295 59.4963 35.6295 58.92C35.6295 58.3438 35.1159 57.8765 34.4822 57.8765H10.0068C8.61499 57.8765 7.48269 56.8467 7.48269 55.5809V8.83458C7.48269 7.56878 8.61499 6.53896 10.0068 6.53896H18.6499V9.94758C18.6499 10.5238 19.1635 10.9911 19.7972 10.9911H39.3775C40.0111 10.9911 40.5248 10.5239 40.5248 9.94758V6.53896H49.1675C50.5593 6.53896 51.6916 7.56878 51.6916 8.83458V38.886C51.6916 39.4622 52.2052 39.9294 52.8389 39.9294C53.4725 39.9294 53.9862 39.4623 53.9862 38.886V8.83458C53.9861 6.41804 51.8245 4.45211 49.1675 4.45211ZM38.2303 8.90409H20.9445V5.4995C20.9445 5.49807 20.9447 5.4969 20.9447 5.49547C20.9447 5.49482 20.9445 5.49404 20.9445 5.49352C20.9458 4.8422 21.5284 4.31284 22.2447 4.31284H25.3711C25.7796 4.31284 26.1572 4.11539 26.3627 3.79415C27.047 2.72515 28.2524 2.08685 29.5873 2.08685C30.9223 2.08685 32.1277 2.72515 32.8119 3.79415C33.0173 4.11526 33.3951 4.31284 33.8036 4.31284H36.93C37.6454 4.31284 38.2276 4.84116 38.2302 5.49143C38.2302 5.49286 38.23 5.49404 38.23 5.49547C38.23 5.4982 38.2305 5.5008 38.2305 5.50354V8.90409H38.2303Z" fill="#FFB902"/>
<path d="M34.4819 53.4246H12.3778V10.991H14.9023C15.5359 10.991 16.0497 10.5239 16.0497 9.94754C16.0497 9.3712 15.536 8.90405 14.9023 8.90405H11.2306C10.5971 8.90405 10.0833 9.3712 10.0833 9.94754V54.4681C10.0833 55.0443 10.5969 55.5116 11.2306 55.5116H34.482C35.1156 55.5116 35.6294 55.0445 35.6294 54.4681C35.6292 53.8918 35.1156 53.4246 34.4819 53.4246Z" fill="#FFB902"/>
<path d="M47.9438 8.90405H44.2725C43.639 8.90405 43.1252 9.3712 43.1252 9.94754C43.1252 10.5239 43.6388 10.991 44.2725 10.991H46.7966V38.8857C46.7966 39.4619 47.3102 39.9292 47.9439 39.9292C48.5776 39.9292 49.0912 39.462 49.0912 38.8857V9.94754C49.0911 9.37133 48.5773 8.90405 47.9438 8.90405Z" fill="#FFB902"/>
<path d="M40.6011 22.2603H28.3635C27.7299 22.2603 27.2161 22.7274 27.2161 23.3037C27.2161 23.8801 27.7298 24.3472 28.3635 24.3472H40.6011C41.2347 24.3472 41.7484 23.8801 41.7484 23.3037C41.7484 22.7274 41.2348 22.2603 40.6011 22.2603Z" fill="#FFB902"/>
<path d="M36.9299 17.8081H28.3635C27.7299 17.8081 27.2161 18.2752 27.2161 18.8516C27.2161 19.4279 27.7298 19.8951 28.3635 19.8951H36.9299C37.5634 19.8951 38.0772 19.4279 38.0772 18.8516C38.0772 18.2752 37.5634 17.8081 36.9299 17.8081Z" fill="#FFB902"/>
<path d="M51.615 42.2947C44.2345 42.2947 38.23 47.7557 38.23 54.4682C38.23 61.1808 44.2346 66.6418 51.615 66.6418C58.9955 66.6418 65 61.1808 65 54.4682C65 47.7557 58.9956 42.2947 51.615 42.2947ZM51.615 64.555C45.4997 64.555 40.5246 60.0301 40.5246 54.4682C40.5246 48.9064 45.4997 44.3815 51.615 44.3815C57.7303 44.3815 62.7055 48.9064 62.7055 54.4682C62.7055 60.0301 57.7305 64.555 51.615 64.555Z" fill="#FFB902"/>
<path d="M45 51.5L51 57.5L60 42.5" stroke="#FFB902" stroke-width="2" stroke-linecap="round" stroke-linejoin="round"/>
<path d="M23.7153 21.2875C23.167 20.999 22.465 21.1692 22.1476 21.6681C21.9152 22.0334 21.4836 22.2601 21.0206 22.2601C20.3036 22.2601 19.7203 21.7296 19.7203 21.0775C19.7203 20.4254 20.3036 19.8948 21.0206 19.8948C21.6542 19.8948 22.1679 19.4277 22.1679 18.8514C22.1679 18.275 21.6543 17.8079 21.0206 17.8079C19.0384 17.8079 17.4258 19.2745 17.4258 21.0773C17.4258 22.8802 19.0384 24.3468 21.0206 24.3468C22.2998 24.3468 23.4926 23.7208 24.1337 22.7129C24.4512 22.2144 24.2637 21.5761 23.7153 21.2875Z" fill="#FFB902"/>
<path d="M40.6011 33.3904H28.3635C27.7299 33.3904 27.2161 33.8575 27.2161 34.4339C27.2161 35.0102 27.7298 35.4774 28.3635 35.4774H40.6011C41.2347 35.4774 41.7484 35.0102 41.7484 34.4339C41.7484 33.8575 41.2348 33.3904 40.6011 33.3904Z" fill="#FFB902"/>
<path d="M36.9299 28.9385H28.3635C27.7299 28.9385 27.2161 29.4056 27.2161 29.982C27.2161 30.5583 27.7298 31.0255 28.3635 31.0255H36.9299C37.5634 31.0255 38.0772 30.5583 38.0772 29.982C38.0772 29.4056 37.5634 28.9385 36.9299 28.9385Z" fill="#FFB902"/>
<path d="M23.7153 32.4177C23.167 32.129 22.465 32.2992 22.1476 32.7982C21.9152 33.1635 21.4836 33.3902 21.0206 33.3902C20.3036 33.3902 19.7203 32.8597 19.7203 32.2076C19.7203 31.5555 20.3036 31.0252 21.0206 31.0252C21.6542 31.0252 22.1679 30.5581 22.1679 29.9817C22.1679 29.4054 21.6543 28.9382 21.0206 28.9382C19.0384 28.9382 17.4258 30.4049 17.4258 32.2077C17.4258 34.0106 19.0384 35.4772 21.0206 35.4772C22.2997 35.4772 23.4926 34.8511 24.1337 33.8433C24.4512 33.3447 24.2638 32.7064 23.7153 32.4177Z" fill="#FFB902"/>
<path d="M36.9299 44.5205H28.3635C27.7299 44.5205 27.2161 44.9877 27.2161 45.564C27.2161 46.1403 27.7298 46.6075 28.3635 46.6075H36.9299C37.5634 46.6075 38.0772 46.1403 38.0772 45.564C38.0772 44.9877 37.5634 44.5205 36.9299 44.5205Z" fill="#FFB902"/>
<path d="M36.9299 40.0684H28.3635C27.7299 40.0684 27.2161 40.5355 27.2161 41.1118C27.2161 41.6882 27.7298 42.1553 28.3635 42.1553H36.9299C37.5634 42.1553 38.0772 41.6882 38.0772 41.1118C38.0772 40.5355 37.5634 40.0684 36.9299 40.0684Z" fill="#FFB902"/>
<path d="M23.7153 43.5478C23.167 43.259 22.465 43.4295 22.1476 43.9284C21.9152 44.2936 21.4836 44.5204 21.0206 44.5204C20.3036 44.5204 19.7203 43.9898 19.7203 43.3377C19.7203 42.6856 20.3036 42.1551 21.0206 42.1551C21.6542 42.1551 22.1679 41.688 22.1679 41.1116C22.1679 40.5353 21.6543 40.0681 21.0206 40.0681C19.0384 40.0681 17.4258 41.5348 17.4258 43.3376C17.4258 45.1404 19.0384 46.6072 21.0206 46.6072C22.2997 46.6072 23.4926 45.9811 24.1337 44.9733C24.4512 44.4748 24.2638 43.8365 23.7153 43.5478Z" fill="#FFB902"/>
<path d="M29.5997 4.45215H29.5873C28.9538 4.45215 28.4462 4.91929 28.4462 5.49564C28.4462 6.07185 28.9658 6.53913 29.5995 6.53913C30.2331 6.53913 30.7468 6.07198 30.7468 5.49564C30.747 4.91929 30.2334 4.45215 29.5997 4.45215Z" fill="#FFB902"/>
</svg>
