<svg width="67" height="59" viewBox="0 0 67 59" fill="none" xmlns="http://www.w3.org/2000/svg">
<path d="M65.8994 27.9517C65.3842 27.4181 64.7468 27.0495 64.048 26.8726C64.4625 26.2138 64.6706 25.446 64.642 24.647C64.5678 22.5609 62.7762 20.8633 60.6482 20.8633H52.8748L52.8672 9.21686C52.8672 6.69168 50.8128 4.63678 48.2871 4.63678C45.7614 4.63678 43.707 6.69168 43.707 9.21686V12.2992C43.707 13.09 43.5399 13.8532 43.2322 14.5499C37.4687 14.3337 32.8457 9.57979 32.8457 3.76421V2.34674C32.8457 1.44453 32.1122 0.710999 31.21 0.710999H14.3291C13.4269 0.710999 12.6934 1.44453 12.6934 2.34674V3.45905C12.6934 9.41212 7.85054 14.2549 1.89746 14.2549H1.63574C0.733528 14.2549 0 14.9885 0 15.8907V35.5196C0 48.0749 10.2142 58.2891 22.7695 58.2891C31.6756 58.2891 39.722 53.1222 43.4433 45.0723H57.1252C58.0182 45.0723 58.8913 44.7043 59.5206 44.0633C60.1401 43.432 60.4729 42.6064 60.4565 41.7385C60.4483 41.2968 60.3507 40.8756 60.181 40.4922H60.6482C62.7762 40.4922 64.5678 38.7947 64.642 36.7086C64.6706 35.903 64.4595 35.1296 64.0378 34.4671C65.6837 34.0244 66.9361 32.5569 66.9974 30.8199C67.0358 29.7439 66.6458 28.7251 65.8994 27.9517ZM22.7695 56.3262C11.2968 56.3262 1.96289 46.9923 1.96289 35.5196V16.2178C8.96796 16.1821 14.6562 10.4723 14.6562 3.45905V2.67389H30.8828V3.76421C30.8828 10.208 35.6842 15.5502 41.897 16.4034C41.6613 16.6181 41.4068 16.8159 41.1312 16.9912L35.7696 20.4028C35.2962 20.7044 34.7498 20.8633 34.1891 20.8633H32.9817C32.6157 19.6534 31.4911 18.7696 30.1631 18.7696H24.667C23.3875 18.7696 22.2967 19.59 21.8913 20.7325H17.0771C15.6699 20.7325 14.5254 21.8775 14.5254 23.2842V40.1651C14.5254 41.5723 15.6699 42.7169 17.0771 42.7169H21.7227V52.3723C12.9055 51.8622 5.88867 44.5279 5.88867 35.585V19.3232C12.63 18.8325 18.0024 13.3302 18.2866 6.53424H21.7227V15.171C21.7227 15.7133 22.1623 16.1524 22.7041 16.1524C23.2459 16.1524 23.6855 15.7133 23.6855 15.171V5.55279C23.6855 5.01044 23.2459 4.57135 22.7041 4.57135H17.3169C16.775 4.57135 16.3354 5.01044 16.3354 5.55279V5.96735C16.3354 12.269 11.2089 17.3956 4.90723 17.3956C4.36539 17.3956 3.92578 17.8347 3.92578 18.377V35.585C3.92578 45.9393 12.3499 54.3633 22.7041 54.3633C23.2459 54.3633 23.6855 53.9242 23.6855 53.3819V44.579C23.9151 44.6429 24.1558 44.6797 24.4053 44.6797H30.1631C31.1251 44.6797 31.9808 44.2161 32.518 43.5005L33.5649 44.0934C34.6946 44.7339 35.9776 45.0723 37.2755 45.0723H41.2585C37.7028 51.9552 30.6001 56.3262 22.7695 56.3262ZM21.7227 40.754H17.0771C16.7526 40.754 16.4883 40.4897 16.4883 40.1651V23.2842C16.4883 22.9596 16.7526 22.6954 17.0771 22.6954H21.7227V40.754ZM63.0037 32.6407H55.3535C54.8117 32.6407 54.3721 33.0798 54.3721 33.6221C54.3721 34.1645 54.8117 34.6036 55.3535 34.6036H60.7187C61.256 34.6036 61.7579 34.8167 62.1316 35.2037C62.5048 35.5901 62.6995 36.1003 62.6801 36.639C62.6433 37.6813 61.7314 38.5294 60.6482 38.5294H57.1855C57.1636 38.5294 57.1416 38.5314 57.1201 38.5324C57.0986 38.5314 57.0767 38.5294 57.0547 38.5294H55.3535C54.8117 38.5294 54.3721 38.9684 54.3721 39.5108C54.3721 40.0532 54.8117 40.4922 55.3535 40.4922H57.0547C57.0767 40.4922 57.0986 40.4902 57.1201 40.4892C57.1416 40.4902 57.1636 40.4922 57.1855 40.4922C57.8935 40.4922 58.4808 41.0678 58.4941 41.7758C58.5003 42.1121 58.3674 42.4362 58.12 42.6887C57.8572 42.9561 57.4948 43.1094 57.1257 43.1094H37.2755C36.316 43.1094 35.3678 42.8595 34.5331 42.3861L33.1074 41.578V39.358C33.1074 38.8161 32.6678 38.3765 32.126 38.3765C31.5841 38.3765 31.1445 38.8161 31.1445 39.358V41.7354C31.1445 42.2767 30.7044 42.7169 30.1631 42.7169H24.4053C24.0086 42.7169 23.6855 42.3938 23.6855 41.9971V21.7139C23.6855 21.1726 24.1257 20.7325 24.667 20.7325H30.1631C30.7044 20.7325 31.1445 21.1726 31.1445 21.7139V34.7779C31.1445 35.3202 31.5841 35.7593 32.126 35.7593C32.6678 35.7593 33.1074 35.3202 33.1074 34.7779V22.8262H34.1891C35.1235 22.8262 36.0349 22.5609 36.8231 22.059L42.1853 18.6469C44.3675 17.2586 45.6699 14.8852 45.6699 12.2992V9.21686C45.6699 7.77383 46.8441 6.59967 48.2871 6.59967C49.7301 6.59967 50.9043 7.77383 50.9043 9.21737L50.912 21.1915C50.9125 22.0927 51.6465 22.8262 52.5477 22.8262H60.6482C61.7314 22.8262 62.6433 23.6743 62.6801 24.7165C62.6995 25.2553 62.5043 25.7655 62.1316 26.1519C61.7579 26.5389 61.256 26.752 60.7187 26.752H55.3535C54.8117 26.752 54.3721 27.1911 54.3721 27.7335C54.3721 28.2758 54.8117 28.7149 55.3535 28.7149H63.0742C63.6115 28.7149 64.1134 28.9281 64.4871 29.315C64.8602 29.7015 65.055 30.2116 65.0356 30.7504C64.9988 31.7927 64.0868 32.6407 63.0037 32.6407Z" fill="#FFB902"/>
</svg>
