<svg width="43" height="19" viewBox="0 0 43 19" fill="none" xmlns="http://www.w3.org/2000/svg">
<g clip-path="url(#clip0)">
<path d="M27.4102 5.19814C28.2631 5.19814 29.0633 5.41043 29.8107 5.835C30.5637 6.25954 31.1505 6.83575 31.5715 7.56355C31.9923 8.29138 32.2028 9.07708 32.2028 9.92069C32.2028 10.7698 31.9895 11.5638 31.5632 12.3027C31.1422 13.0415 30.5665 13.6204 29.8355 14.0395C29.1046 14.453 28.299 14.6598 27.4187 14.6598C26.1229 14.6598 25.0156 14.2021 24.0963 13.2869C23.1828 12.366 22.7259 11.2495 22.7259 9.93727C22.7259 8.53122 23.2438 7.35954 24.2793 6.42222C25.1872 5.60617 26.2308 5.19814 27.4102 5.19814ZM27.4435 7.32371C26.7404 7.32371 26.1533 7.56908 25.6828 8.0598C25.2176 8.54501 24.9851 9.16805 24.9851 9.92898C24.9851 10.7119 25.215 11.346 25.6745 11.8312C26.1397 12.3165 26.7265 12.559 27.4352 12.559C28.144 12.559 28.7337 12.3137 29.2043 11.8229C29.6749 11.3322 29.9102 10.7009 29.9102 9.92898C29.9102 9.15705 29.6777 8.53122 29.2126 8.05152C28.753 7.56631 28.1634 7.32371 27.4435 7.32371ZM34.0798 1.95605H36.3473V9.14326L39.6859 5.42973H42.5265L38.6396 9.74699L43 14.4282H40.1843L36.3473 10.2846V14.4282H34.0798V1.95605Z" fill="white"/>
<path d="M13.9113 5.01612L7.86202 10.991L5.36735 8.52699L5.01598 8.17995L4.66462 8.52699L3.33105 9.8442L2.97089 10.1999L3.33106 10.5557L6.64382 13.8276C7.3173 14.4928 8.40671 14.4928 9.0802 13.8276C9.0802 13.8276 9.0802 13.8276 9.0802 13.8276L15.9476 7.04475L16.3078 6.68902L15.9476 6.33328L14.6141 5.01612L14.2627 4.66909L13.9113 5.01612ZM18.7368 9.5C18.7368 14.4647 14.6602 18.5 9.61842 18.5C4.5766 18.5 0.5 14.4647 0.5 9.5C0.5 4.53526 4.5766 0.5 9.61842 0.5C14.6602 0.5 18.7368 4.53526 18.7368 9.5Z" stroke="white"/>
</g>
<defs>
<clipPath id="clip0">
<rect width="43" height="19" fill="white"/>
</clipPath>
</defs>
</svg>
