<svg width="67" height="67" viewBox="0 0 67 67" fill="none" xmlns="http://www.w3.org/2000/svg">
<g clip-path="url(#clip0)">
<path d="M44.0528 40.7768H31.4767V29.4178C31.4767 28.8092 31.0711 28.4036 30.4625 28.4036C29.8539 28.4036 29.4482 28.8092 29.4482 29.4178V47.1663L29.2453 47.0649L22.6531 34.9959C21.8417 33.069 20.0161 31.852 17.9878 31.852H4.49904C3.89047 31.852 3.48479 32.2577 3.48479 32.8662V42.1969C1.45642 42.6024 0.0366211 44.428 0.0366211 46.5579C0.0366211 51.6289 0.0366211 55.5842 0.0366211 60.9595C0.0366211 61.5681 0.442296 61.9738 1.05087 61.9738H3.58637C3.78927 64.712 6.12187 66.9433 9.06305 66.9433C11.9028 66.9433 14.2355 64.712 14.5397 61.9738H18.0893C18.3936 64.8135 20.7263 66.9433 23.566 66.9433C26.4057 66.9433 28.7385 64.712 29.0427 61.9738H30.4626C31.0712 61.9738 31.4769 61.4666 31.4769 60.9595C31.4769 50.8175 31.4769 53.0488 31.4769 42.8053H44.0529C44.6615 42.8053 45.0672 42.3997 45.0672 41.7911C45.0672 41.1825 44.6612 40.7768 44.0528 40.7768ZM5.51329 33.7789H17.9879V33.9818C19.2049 33.9818 20.3205 34.6917 20.8276 35.9087C20.8276 35.9087 20.8276 36.0102 20.9291 36.0102L26.0001 45.3408L25.8986 45.2394C25.3915 45.0365 24.783 45.0365 24.3774 45.3408C23.8702 45.6451 23.6675 46.1522 23.6675 46.6593V48.9919H15.6553V44.0224C15.6553 42.9068 14.7425 41.994 13.6269 41.994H5.51329V33.7789ZM9.06291 64.9148C7.13599 64.9148 5.61461 63.3936 5.61461 61.4665C5.61461 59.5396 7.13586 58.0182 9.06291 58.0182C10.99 58.0182 12.5112 59.5395 12.5112 61.4665C12.5112 63.3934 10.8885 64.9148 9.06291 64.9148ZM23.566 64.9148C21.6391 64.9148 20.1177 63.3936 20.1177 61.4665C20.1177 59.5396 21.639 58.0182 23.566 58.0182C25.4931 58.0182 27.0143 59.5395 27.0143 61.4665C27.0142 63.3934 25.4929 64.9148 23.566 64.9148ZM29.4484 59.9453H28.7385C28.0286 57.6127 26.0002 55.9898 23.4647 55.9898C20.9292 55.9898 18.7994 57.714 18.1909 59.9453H14.2355C13.5256 57.6127 11.4972 55.9898 8.96173 55.9898C6.42623 55.9898 4.2964 57.714 3.68795 59.9453H2.06499V54.6714H29.4484V59.9453ZM29.5497 52.643H2.06499V46.6592C2.06499 45.2393 3.18057 44.1237 4.49904 44.1237H13.5253V50.1075C13.5253 50.7161 13.931 51.1217 14.5396 51.1217H24.5801C25.1887 51.1217 25.5944 50.7161 25.5944 50.1075V47.4705L29.5498 49.6004V52.643H29.5497Z" fill="#FFB902"/>
<path d="M66.568 22.3184L34.1136 0.208818C33.8094 0.00591493 33.3022 0.00591493 32.998 0.208818L0.442329 22.3184C0.0366542 22.5213 -0.0647971 23.0283 0.0366542 23.434C0.138106 23.8397 0.54378 24.1439 1.05091 24.1439H1.65948V29.9248C1.65948 30.5334 2.06516 30.939 2.67374 30.939C3.28231 30.939 3.68799 30.5334 3.68799 29.9248V24.1439H63.3228V64.9147H31.6795C31.071 64.9147 30.6653 65.3203 30.6653 65.9289C30.6653 66.5375 31.071 66.9432 31.6795 66.9432H64.3367C64.9453 66.9432 65.3509 66.5375 65.3509 65.9289V24.1439H65.9595C66.3652 24.1439 66.7709 23.8397 66.9738 23.434C67.0751 23.0283 66.8722 22.5212 66.568 22.3184ZM4.2963 22.1155L33.5051 2.23732L62.714 22.1156H4.2963V22.1155Z" fill="#FFB902"/>
<path d="M45.1683 49.9048H34.6206C34.0121 49.9048 33.6064 50.3105 33.6064 50.919V61.4667C33.6064 62.0753 34.0121 62.481 34.6206 62.481H45.1683C45.7768 62.481 46.1826 62.0753 46.1826 61.4667V50.919C46.1826 50.3105 45.6754 49.9048 45.1683 49.9048ZM44.1541 60.4523H35.6348V51.933H44.1541V60.4523Z" fill="#FFB902"/>
<path d="M59.9757 49.9048H49.428C48.8194 49.9048 48.4138 50.3105 48.4138 50.919V61.4667C48.4138 62.0753 48.8194 62.481 49.428 62.481H59.9757C60.5843 62.481 60.9899 62.0753 60.9899 61.4667V50.919C60.9898 50.3105 60.5841 49.9048 59.9757 49.9048ZM58.9614 60.4523H50.4421V51.933H58.9614V60.4523Z" fill="#FFB902"/>
<path d="M59.9757 35.0974H49.428C48.8194 35.0974 48.4138 35.5031 48.4138 36.1117V46.6593C48.4138 47.1665 48.8194 47.6736 49.428 47.6736H59.9757C60.5843 47.6736 60.9899 47.2679 60.9899 46.6593V36.1117C60.9898 35.5031 60.5841 35.0974 59.9757 35.0974ZM58.9614 45.6451H50.4421V37.1258H58.9614V45.6451Z" fill="#FFB902"/>
<path d="M45.1683 26.8823H34.6206C34.0121 26.8823 33.6064 27.288 33.6064 27.8966V38.4442C33.6064 39.0528 34.0121 39.4585 34.6206 39.4585H45.1683C45.7768 39.4585 46.1826 39.0528 46.1826 38.4442V27.8964C46.1826 27.288 45.7768 26.8823 45.1683 26.8823ZM44.1541 37.3285H35.6348V28.8092H44.1541V37.3285Z" fill="#FFB902"/>
<path d="M33.7079 7.30835C30.2596 7.30835 27.4199 10.1481 27.4199 13.5964C27.4199 17.0447 30.2596 19.8844 33.7079 19.8844C37.1562 19.8844 39.9959 17.0447 39.9959 13.5964C39.9959 10.1482 37.1562 7.30835 33.7079 7.30835ZM33.7079 17.856C31.3753 17.856 29.4482 15.9291 29.4482 13.5964C29.4482 11.2638 31.3752 9.33672 33.7079 9.33672C36.0406 9.33672 37.9675 11.2636 37.9675 13.5964C37.9675 15.9291 36.0406 17.856 33.7079 17.856Z" fill="#FFB902"/>
</g>
<defs>
<clipPath id="clip0">
<rect width="67" height="67" fill="white"/>
</clipPath>
</defs>
</svg>
