<svg width="67" height="59" viewBox="0 0 67 59" fill="none" xmlns="http://www.w3.org/2000/svg">
<path d="M65.8994 27.9517C65.3842 27.418 64.7468 27.0494 64.048 26.8726C64.4625 26.2137 64.6706 25.4459 64.642 24.647C64.5678 22.5609 62.7762 20.8633 60.6482 20.8633H52.8748L52.8672 9.2168C52.8672 6.69162 50.8128 4.63672 48.2871 4.63672C45.7614 4.63672 43.707 6.69162 43.707 9.2168V12.2991C43.707 13.0899 43.5399 13.8531 43.2322 14.5498C37.4687 14.3336 32.8457 9.57973 32.8457 3.76415V2.34668C32.8457 1.44447 32.1122 0.710938 31.21 0.710938H14.3291C13.4269 0.710938 12.6934 1.44447 12.6934 2.34668V3.45898C12.6934 9.41206 7.85054 14.2549 1.89746 14.2549H1.63574C0.733528 14.2549 0 14.9884 0 15.8906V35.5195C0 48.0749 10.2142 58.2891 22.7695 58.2891C31.6756 58.2891 39.722 53.1222 43.4433 45.0723H57.1252C58.0182 45.0723 58.8913 44.7042 59.5206 44.0632C60.1401 43.4319 60.4729 42.6064 60.4565 41.7384C60.4483 41.2968 60.3507 40.8756 60.181 40.4922H60.6482C62.7762 40.4922 64.5678 38.7946 64.642 36.7085C64.6706 35.9029 64.4595 35.1295 64.0378 34.467C65.6837 34.0244 66.9361 32.5568 66.9974 30.8198C67.0358 29.7438 66.6458 28.7251 65.8994 27.9517ZM22.7695 56.3262C11.2968 56.3262 1.96289 46.9922 1.96289 35.5195V16.2178C8.96796 16.182 14.6562 10.4722 14.6562 3.45898V2.67383H30.8828V3.76415C30.8828 10.208 35.6842 15.5502 41.897 16.4033C41.6613 16.618 41.4068 16.8158 41.1312 16.9912L35.7696 20.4027C35.2962 20.7043 34.7498 20.8633 34.1891 20.8633H32.9817C32.6157 19.6533 31.4911 18.7695 30.1631 18.7695H24.667C23.3875 18.7695 22.2967 19.59 21.8913 20.7324H17.0771C15.6699 20.7324 14.5254 21.8774 14.5254 23.2842V40.165C14.5254 41.5723 15.6699 42.7168 17.0771 42.7168H21.7227V52.3723C12.9055 51.8621 5.88867 44.5279 5.88867 35.585V19.3231C12.63 18.8324 18.0024 13.3302 18.2866 6.53418H21.7227V15.1709C21.7227 15.7132 22.1623 16.1523 22.7041 16.1523C23.2459 16.1523 23.6855 15.7132 23.6855 15.1709V5.55273C23.6855 5.01038 23.2459 4.57129 22.7041 4.57129H17.3169C16.775 4.57129 16.3354 5.01038 16.3354 5.55273V5.96729C16.3354 12.269 11.2089 17.3955 4.90723 17.3955C4.36539 17.3955 3.92578 17.8346 3.92578 18.377V35.585C3.92578 45.9392 12.3499 54.3633 22.7041 54.3633C23.2459 54.3633 23.6855 53.9242 23.6855 53.3818V44.579C23.9151 44.6429 24.1558 44.6797 24.4053 44.6797H30.1631C31.1251 44.6797 31.9808 44.2161 32.518 43.5004L33.5649 44.0934C34.6946 44.7339 35.9776 45.0723 37.2755 45.0723H41.2585C37.7028 51.9552 30.6001 56.3262 22.7695 56.3262ZM21.7227 40.7539H17.0771C16.7526 40.7539 16.4883 40.4896 16.4883 40.165V23.2842C16.4883 22.9596 16.7526 22.6953 17.0771 22.6953H21.7227V40.7539ZM63.0037 32.6406H55.3535C54.8117 32.6406 54.3721 33.0797 54.3721 33.6221C54.3721 34.1644 54.8117 34.6035 55.3535 34.6035H60.7187C61.256 34.6035 61.7579 34.8167 62.1316 35.2036C62.5048 35.5901 62.6995 36.1002 62.6801 36.639C62.6433 37.6813 61.7314 38.5293 60.6482 38.5293H57.1855C57.1636 38.5293 57.1416 38.5313 57.1201 38.5324C57.0986 38.5313 57.0767 38.5293 57.0547 38.5293H55.3535C54.8117 38.5293 54.3721 38.9684 54.3721 39.5107C54.3721 40.0531 54.8117 40.4922 55.3535 40.4922H57.0547C57.0767 40.4922 57.0986 40.4901 57.1201 40.4891C57.1416 40.4901 57.1636 40.4922 57.1855 40.4922C57.8935 40.4922 58.4808 41.0678 58.4941 41.7757C58.5003 42.1121 58.3674 42.4362 58.12 42.6887C57.8572 42.956 57.4948 43.1094 57.1257 43.1094H37.2755C36.316 43.1094 35.3678 42.8594 34.5331 42.3861L33.1074 41.5779V39.3579C33.1074 38.8161 32.6678 38.3765 32.126 38.3765C31.5841 38.3765 31.1445 38.8161 31.1445 39.3579V41.7353C31.1445 42.2767 30.7044 42.7168 30.1631 42.7168H24.4053C24.0086 42.7168 23.6855 42.3937 23.6855 41.9971V21.7139C23.6855 21.1725 24.1257 20.7324 24.667 20.7324H30.1631C30.7044 20.7324 31.1445 21.1725 31.1445 21.7139V34.7778C31.1445 35.3202 31.5841 35.7593 32.126 35.7593C32.6678 35.7593 33.1074 35.3202 33.1074 34.7778V22.8262H34.1891C35.1235 22.8262 36.0349 22.5609 36.8231 22.0589L42.1853 18.6468C44.3675 17.2585 45.6699 14.8852 45.6699 12.2991V9.2168C45.6699 7.77376 46.8441 6.59961 48.2871 6.59961C49.7301 6.59961 50.9043 7.77376 50.9043 9.21731L50.912 21.1915C50.9125 22.0926 51.6465 22.8262 52.5477 22.8262H60.6482C61.7314 22.8262 62.6433 23.6742 62.6801 24.7165C62.6995 25.2552 62.5043 25.7654 62.1316 26.1518C61.7579 26.5388 61.256 26.7519 60.7187 26.7519H55.3535C54.8117 26.7519 54.3721 27.191 54.3721 27.7334C54.3721 28.2757 54.8117 28.7148 55.3535 28.7148H63.0742C63.6115 28.7148 64.1134 28.928 64.4871 29.315C64.8602 29.7014 65.055 30.2115 65.0356 30.7503C64.9988 31.7926 64.0868 32.6406 63.0037 32.6406Z" fill="#FFB902"/>
</svg>
