<svg width="67" height="67" viewBox="0 0 67 67" fill="none" xmlns="http://www.w3.org/2000/svg">
<path d="M8.52074 67C8.3398 67 8.16042 66.9496 8.00409 66.8523C7.78407 66.7151 7.62774 66.4966 7.56912 66.2438L0.46186 35.6579C0.339536 35.1322 0.666644 34.6074 1.19228 34.485L3.82204 33.8742L33.794 8.76312L32.0608 7.19519C31.4691 7.56021 30.7731 7.77047 30.0286 7.77047C27.8861 7.77047 26.1435 6.02746 26.1435 3.88543C26.1435 1.7434 27.8861 0 30.0286 0C32.171 0 33.9136 1.74301 33.9136 3.88504C33.9136 4.57521 33.7327 5.22395 33.4161 5.78594L35.3064 7.49573L35.743 7.12993C36.0955 6.83409 36.6067 6.82471 36.9705 7.10726L55.8392 21.7865L58.2579 21.2245C58.7843 21.1037 59.3084 21.4297 59.4307 21.9553L66.5384 52.5412C66.6607 53.0669 66.3336 53.5917 65.808 53.714L8.74194 66.975C8.66886 66.9918 8.59461 67 8.52074 67ZM2.5863 36.1675L9.25117 64.8505L64.4135 52.032L57.7483 23.3493L55.8415 23.7925C55.8329 23.7948 55.8239 23.7968 55.815 23.7987L4.51612 35.7188C4.50009 35.7231 4.48407 35.727 4.46766 35.7302L2.5863 36.1675ZM35.2572 10.0864L8.03223 32.896L53.3884 22.3563L37.5911 10.0669C37.5763 10.2775 37.4934 10.485 37.341 10.6539C36.9795 11.054 36.3616 11.0853 35.961 10.7234L35.2572 10.0864ZM30.0286 1.95405C28.9636 1.95405 28.0976 2.82047 28.0976 3.88504C28.0976 4.9496 28.964 5.81603 30.0286 5.81603C30.5604 5.81603 31.0431 5.59952 31.3929 5.25053C31.403 5.23997 31.4132 5.22903 31.4237 5.21887C31.7555 4.87183 31.9599 4.40169 31.9599 3.88504C31.9595 2.82047 31.0935 1.95405 30.0286 1.95405ZM15.7324 55.0201C15.2888 55.0201 14.8874 54.7161 14.7819 54.2655L12.2624 43.5166C12.1392 42.9914 12.4652 42.4658 12.9908 42.3427C13.3148 42.2668 13.6392 42.3614 13.869 42.5689C14.3376 42.1144 14.9218 41.794 15.5737 41.6412C16.523 41.4188 17.5031 41.5786 18.332 42.0929C19.1609 42.6068 19.7401 43.4131 19.9629 44.3631C20.4225 46.3234 19.2012 48.2927 17.2409 48.7519C17.09 48.7875 16.9388 48.8129 16.7883 48.8285L21.7692 51.9175C22.2276 52.2024 22.3687 52.8046 22.0846 53.2627C21.8001 53.7215 21.1982 53.8618 20.7394 53.5784L15.9289 50.5946L16.6848 53.8192C16.8079 54.3444 16.4815 54.8701 15.9563 54.9932C15.8813 55.0115 15.8062 55.0201 15.7324 55.0201ZM16.4108 43.4983C16.2807 43.4983 16.1497 43.5135 16.02 43.5436C15.5784 43.6476 15.2036 43.9164 14.9644 44.3018C14.7252 44.6871 14.6506 45.1424 14.7542 45.584C14.9675 46.495 15.8828 47.0605 16.795 46.8499C17.7063 46.6357 18.2742 45.7204 18.0604 44.8087C17.9568 44.367 17.6876 43.9923 17.3022 43.7535C17.0302 43.585 16.7234 43.4983 16.4108 43.4983ZM26.516 51.9839C26.0724 51.9839 25.671 51.6799 25.5655 51.2293L24.4052 46.2793C24.404 46.275 24.4032 46.2711 24.4021 46.2664C24.4013 46.2621 24.4001 46.2582 24.3993 46.2535L23.1722 41.0182C23.1722 41.0174 23.1718 41.0162 23.1714 41.0151C23.0483 40.4898 23.3746 39.9642 23.8999 39.8411L29.7015 38.4815C30.2263 38.3584 30.7523 38.6847 30.8754 39.2095C30.9985 39.7344 30.6722 40.2604 30.147 40.3835L25.2966 41.5204L26.0818 44.8688L28.998 44.1853C29.5232 44.0618 30.0493 44.3885 30.1724 44.9134C30.2955 45.4386 29.9695 45.9643 29.4443 46.0874L26.5277 46.7713L27.2448 49.8317L32.0956 48.6953C32.6204 48.5722 33.1464 48.8985 33.2695 49.4233C33.3926 49.9482 33.0663 50.4742 32.5411 50.5973L26.7422 51.957C26.7415 51.957 26.7403 51.9573 26.7395 51.9573C26.6649 51.9749 26.5898 51.9839 26.516 51.9839ZM36.5367 49.6348C36.0931 49.6348 35.6918 49.3307 35.5863 48.8801L33.1922 38.6659C33.1066 38.3013 33.2375 37.9371 33.5013 37.7065C33.8644 37.3153 34.476 37.2864 34.873 37.6459L42.2332 44.2979L40.5109 36.9503C40.3877 36.425 40.7137 35.8994 41.2389 35.7763C41.765 35.6532 42.2902 35.9795 42.4133 36.5043L44.8074 46.7185C44.8926 47.082 44.7625 47.4458 44.5002 47.676C44.138 48.0704 43.5252 48.0993 43.1265 47.739L35.7668 41.0878L37.4887 48.4346C37.6118 48.9598 37.2859 49.4855 36.7603 49.6086C36.6856 49.6258 36.6106 49.6348 36.5367 49.6348ZM51.5688 46.1112C51.1252 46.1112 50.7239 45.8072 50.6184 45.3566L48.447 36.0936L45.7387 36.7283C45.2135 36.8506 44.6874 36.5251 44.5647 36.0002C44.4416 35.475 44.7676 34.9493 45.2932 34.8262L52.6119 33.1106C53.1371 32.9871 53.6628 33.3138 53.7859 33.8386C53.909 34.3639 53.583 34.8895 53.0574 35.0126L50.3495 35.6477L52.5208 44.9107C52.6439 45.4359 52.318 45.9615 51.7927 46.0847C51.7177 46.1026 51.6427 46.1112 51.5688 46.1112Z" fill="#FFB902"/>
</svg>
