<svg width="24" height="24" viewBox="0 0 24 24" fill="none" xmlns="http://www.w3.org/2000/svg">
<mask id="mask0" mask-type="alpha" maskUnits="userSpaceOnUse" x="0" y="0" width="24" height="24">
<g clip-path="url(#clip0)">
<path d="M23.3816 17.7087L20.3988 14.7252C19.603 13.9294 18.2125 13.928 17.4154 14.7252L16.918 15.2226L22.8844 21.1887L23.3816 20.6915C24.2075 19.8656 24.2048 18.5304 23.3816 17.7087Z" fill="black"/>
<path d="M15.8962 16.1891C15.2685 16.6753 14.3731 16.6559 13.7996 16.0811L7.90194 10.1794C7.32711 9.60457 7.30775 8.70851 7.79399 8.0824L1.8413 2.13004C-0.719527 5.11503 -0.619402 9.61282 2.20692 12.4391L11.5399 21.7762C14.252 24.4882 18.6946 24.848 21.8491 22.1416L15.8962 16.1891Z" fill="black"/>
<path d="M9.25837 3.58069L6.27557 0.597239C5.47973 -0.198603 4.08928 -0.199963 3.29213 0.597239L2.79474 1.09463L8.76116 7.06073L9.25837 6.56348C10.0842 5.73764 10.0815 4.40245 9.25837 3.58069Z" fill="black"/>
</g>
</mask>
<g mask="url(#mask0)">
<rect x="-27.8537" y="-15.3462" width="79.1538" height="54.9231" fill="#FFB902"/>
</g>
<defs>
<clipPath id="clip0">
<rect width="24" height="24" fill="white"/>
</clipPath>
</defs>
</svg>
