<svg width="31" height="31" viewBox="0 0 31 31" fill="none" xmlns="http://www.w3.org/2000/svg">
<g clip-path="url(#clip0)">
<path d="M10.6572 23.079C10.4897 23.079 10.3222 23.0355 10.1728 22.9495C9.87293 22.7764 9.68848 22.4566 9.68848 22.1103V8.71908C9.68848 8.3728 9.87293 8.054 10.1719 7.8809C10.4718 7.70779 10.8407 7.70494 11.1406 7.87997L22.7657 14.5723C23.0656 14.7444 23.251 15.0652 23.251 15.4114C23.251 15.7577 23.0666 16.0774 22.7657 16.2506L11.1406 22.9495C10.9911 23.0356 10.8236 23.079 10.6572 23.079ZM11.6259 10.3945V20.4339L20.3409 15.4114C20.3408 15.4114 11.6259 10.3945 11.6259 10.3945Z" fill="white"/>
<path d="M15.5 31C6.95344 31 0 24.0466 0 15.5C0 6.95338 6.95344 0 15.5 0C24.0466 0 31.0001 6.95344 31.0001 15.5C31.0001 24.0466 24.0466 31 15.5 31ZM15.5 1.9375C8.02158 1.9375 1.9375 8.02151 1.9375 15.5C1.9375 22.9785 8.02151 29.0626 15.5 29.0626C22.9785 29.0626 29.0625 22.9785 29.0625 15.5C29.0625 8.02158 22.9785 1.9375 15.5 1.9375Z" fill="white"/>
</g>
<defs>
<clipPath id="clip0">
<rect width="31" height="31" fill="white"/>
</clipPath>
</defs>
</svg>
