<svg width="33" height="19" viewBox="0 0 33 19" fill="none" xmlns="http://www.w3.org/2000/svg">
<path d="M32.8853 6.19565C32.4735 4.21304 28.6853 3.63478 23.9088 3.88261C22.2617 1.48696 19.4617 0 16.4147 0C12.3794 0 9.00291 2.56087 7.68527 6.27826C7.60291 6.6087 7.43821 6.93913 7.43821 7.26957C7.2735 7.76522 7.19115 8.34348 7.19115 8.92174C7.19115 9.16957 7.19115 9.33478 7.19115 9.58261C7.19115 9.99565 7.19115 10.3261 7.2735 10.7391C7.43821 11.813 7.68527 12.8043 8.17938 13.7957C7.35585 13.7957 6.61467 13.7957 5.8735 13.7957C2.41467 13.6304 1.5088 12.887 1.42644 12.6391C1.34409 12.3913 1.92056 11.4 4.96762 9.91304V8.17826C4.80291 8.26087 4.63821 8.34348 4.55585 8.34348C1.26173 9.83043 -0.220618 11.3174 0.0264407 12.7217C0.273499 14.1261 2.24997 14.9522 5.8735 15.0348C6.28526 15.0348 6.61468 15.0348 7.02644 15.0348C7.68526 15.0348 8.34409 15.0348 9.00291 14.9522C10.65 17.3478 13.45 18.8348 16.497 18.8348C19.1323 18.8348 21.5206 17.7609 23.1676 15.9435H20.9441C19.6264 16.8522 18.1441 17.3478 16.497 17.3478C14.1911 17.3478 12.1323 16.3565 10.7323 14.787C11.1441 14.787 11.4735 14.7043 11.8853 14.7043C13.6147 14.5391 15.5088 14.2087 17.4029 13.8783C18.3088 13.713 19.2147 13.5478 20.0382 13.3C21.3559 12.9696 22.6735 12.6391 23.9088 12.2261C24.4853 12.0609 25.0617 11.8957 25.5559 11.6478C25.6382 11.6478 25.7206 11.5652 25.7206 11.5652C26.7088 11.2348 27.6147 10.8217 28.4382 10.4913C31.5676 9.08696 33.1323 7.6 32.8853 6.19565ZM24.1559 10.6565C23.7441 10.8217 23.3323 10.9043 22.8382 11.0696C22.097 11.3174 21.3559 11.4826 20.5323 11.7304C20.2853 11.813 20.0382 11.8957 19.7911 11.8957C18.8853 12.1435 17.897 12.3087 16.9088 12.5565C14.3559 13.0522 11.8029 13.3826 9.49703 13.5478C9.00291 12.6391 8.6735 11.6478 8.5088 10.5739C8.42644 10.2435 8.42644 9.83043 8.42644 9.41739C8.42644 9.00435 8.42644 8.5913 8.5088 8.26087C8.59115 7.68261 8.75585 7.10435 8.92056 6.6087C8.92056 6.52609 9.00291 6.44348 9.08526 6.27826C10.2382 3.38696 13.1206 1.40435 16.3323 1.40435C18.6382 1.40435 20.697 2.39565 22.097 3.96522C22.5088 4.37826 22.8382 4.87391 23.0853 5.36957C23.7441 6.52609 24.1559 7.93043 24.1559 9.41739C24.2382 9.91304 24.1559 10.3261 24.1559 10.6565ZM27.7794 9.25217C27.1206 9.58261 26.4617 9.83043 25.6382 10.1609C25.6382 9.91304 25.6382 9.74783 25.6382 9.5C25.6382 8.01304 25.3088 6.6087 24.7323 5.36957C25.1441 5.36957 25.4735 5.36957 25.8853 5.36957C26.297 5.36957 26.6264 5.36957 27.0382 5.36957C30.5794 5.53478 31.4029 6.27826 31.4853 6.52609C31.4853 6.77391 30.9088 7.84783 27.7794 9.25217Z" fill="white"/>
</svg>
